<svg width="14" height="12" viewBox="0 0 14 12" fill="none" xmlns="http://www.w3.org/2000/svg">
<path fill-rule="evenodd" clip-rule="evenodd" d="M14 0.937365C13.9265 1.26358 13.8499 1.58915 13.7799 1.91613C13.3275 4.03067 12.8766 6.14553 12.4249 8.26025C12.2304 9.171 12.0373 10.0821 11.8383 10.9918C11.8124 11.1101 11.7663 11.2275 11.7094 11.3346C11.5573 11.6208 11.3068 11.7287 10.9984 11.6321C10.8578 11.5881 10.7162 11.5236 10.5974 11.4375C9.59122 10.7084 8.59024 9.97209 7.58762 9.23804C7.55133 9.21146 7.51412 9.18609 7.47084 9.15558C7.43757 9.18401 7.40612 9.20836 7.37744 9.2357C6.85983 9.72895 6.34214 10.2222 5.8254 10.7164C5.67144 10.8636 5.49625 10.9522 5.26599 10.9389C5.28505 10.6542 5.30254 10.3786 5.32214 10.1032C5.36321 9.52656 5.40533 8.94998 5.44716 8.37333C5.45376 8.28256 5.47744 8.18961 5.46553 8.10143C5.42049 7.76894 5.60739 7.57621 5.83567 7.37273C7.69169 5.71805 9.53878 4.05334 11.3885 2.39159C11.4156 2.36724 11.4508 2.34672 11.4668 2.31631C11.4961 2.26054 11.5139 2.19872 11.5365 2.13941C11.4741 2.12187 11.405 2.07835 11.3505 2.0922C11.2383 2.12067 11.1258 2.16682 11.0274 2.22824C8.61644 3.73409 6.20721 5.24274 3.79823 6.75182C3.73056 6.79422 3.67248 6.81766 3.58561 6.79024C2.5636 6.46756 1.53931 6.15224 0.517375 5.82927C0.393738 5.79019 0.270683 5.73179 0.164901 5.65739C-0.0339461 5.51756 -0.0578865 5.31283 0.120008 5.14752C0.250314 5.02642 0.408095 4.91896 0.572762 4.85353C1.43378 4.51134 2.30066 4.18399 3.1659 3.85245C6.45288 2.59314 9.73985 1.33379 13.0278 0.0769981C13.1324 0.037009 13.2464 0.0106899 13.3579 0.00212338C13.6537 -0.0205505 13.8731 0.139515 13.9635 0.427021C13.9742 0.460886 13.9878 0.493876 14 0.527267V0.937365Z" fill="#1E222E"/>
</svg>
