<svg width="15" height="15" viewBox="0 0 15 15" fill="none" xmlns="http://www.w3.org/2000/svg">
<g clip-path="url(#clip0_412_292)">
<path d="M14.7443 2.68216C14.6788 2.06089 14.402 1.48093 13.9602 1.03927C13.5184 0.597607 12.9383 0.321013 12.317 0.255737C9.11596 -0.0874632 5.88739 -0.0874632 2.68633 0.255737C2.06442 0.320278 1.48358 0.596548 1.04107 1.03828C0.59857 1.48 0.321281 2.06036 0.255649 2.68216C-0.0861115 5.88471 -0.0861115 9.11454 0.255649 12.3171C0.321874 12.9382 0.598886 13.5178 1.04054 13.9595C1.4822 14.4011 2.06184 14.6781 2.68292 14.7444C5.88398 15.0876 9.11255 15.0876 12.3136 14.7444C12.9353 14.6789 13.5157 14.4022 13.9581 13.9605C14.4004 13.5187 14.6779 12.9387 14.7443 12.3171C15.086 9.11454 15.086 5.88471 14.7443 2.68216ZM11.7383 10.1822C11.5201 10.2128 10.4531 10.1822 10.3977 10.1822C10.1212 10.1853 9.85465 10.079 9.65622 9.88642C9.43122 9.66909 9.23008 9.43045 9.0102 9.2046C8.9454 9.13528 8.87499 9.07142 8.79968 9.01369C8.62412 8.87903 8.45025 8.90971 8.36758 9.11682C8.30299 9.34062 8.25793 9.5696 8.23292 9.80119C8.21843 10.01 8.08548 10.1421 7.85025 10.1557C7.70451 10.1643 7.55877 10.1668 7.41474 10.1634C6.88976 10.1598 6.37309 10.0319 5.90707 9.79011C5.40279 9.5094 4.9634 9.12547 4.61758 8.66341C4.04912 7.93727 3.59485 7.13954 3.18917 6.3171C3.16787 6.27534 2.75196 5.39153 2.74173 5.34892C2.70423 5.21 2.74173 5.07619 2.85679 5.02932C2.93008 5.00119 4.30054 5.02932 4.32355 5.02932C4.42547 5.02876 4.52495 5.06055 4.60765 5.12013C4.69036 5.17971 4.75202 5.26399 4.78377 5.36085C5.03712 6.00953 5.38397 6.61767 5.81332 7.16596C5.87344 7.23901 5.94376 7.30302 6.02213 7.35602C6.13377 7.43272 6.23946 7.4063 6.28548 7.27676C6.34009 7.09822 6.37215 6.91354 6.38093 6.72704C6.3886 6.35716 6.38093 6.11426 6.36048 5.74437C6.34684 5.50744 6.26332 5.30034 5.91389 5.23301C5.8065 5.21341 5.79713 5.12477 5.86616 5.03613C6.0102 4.8529 6.20707 4.82307 6.42781 4.81284C6.75679 4.79324 7.08576 4.80602 7.41474 4.81284H7.48633C7.6295 4.81161 7.77238 4.8259 7.91247 4.85545C7.99525 4.87263 8.07033 4.91594 8.12664 4.979C8.18295 5.04206 8.21752 5.12155 8.22525 5.20574C8.24218 5.29906 8.24932 5.39389 8.24656 5.48869C8.23804 5.89182 8.21843 6.29579 8.21417 6.69892C8.21021 6.85887 8.22479 7.01874 8.25764 7.17534C8.30451 7.39096 8.45196 7.4438 8.59855 7.28869C8.78852 7.08891 8.96262 6.87463 9.11929 6.64778C9.39677 6.23341 9.62556 5.78843 9.8011 5.32165C9.89656 5.08216 9.97156 5.02932 10.2272 5.02932H11.6812C11.7677 5.0278 11.8539 5.03929 11.9369 5.06341C11.9663 5.07113 11.9938 5.08484 12.0176 5.10367C12.0415 5.12251 12.0612 5.14607 12.0755 5.17287C12.0898 5.19967 12.0984 5.22914 12.1008 5.25944C12.1032 5.28973 12.0994 5.32019 12.0895 5.34892C12.0179 5.66852 11.8457 5.93954 11.6633 6.20119C11.3676 6.61966 11.0556 7.0279 10.7531 7.44125C10.7146 7.49583 10.6796 7.55276 10.6483 7.6117C10.5341 7.8171 10.5426 7.93216 10.7079 8.10261C10.9721 8.37449 11.2542 8.62846 11.5091 8.90801C11.696 9.1114 11.8648 9.3307 12.0136 9.56341C12.2003 9.85318 12.0852 10.1293 11.7375 10.1787L11.7383 10.1822Z" fill="#1E222E"/>
</g>
<defs>
<clipPath id="clip0_412_292">
<rect width="15" height="15" fill="white"/>
</clipPath>
</defs>
</svg>
